<svg xmlns="http://www.w3.org/2000/svg" viewBox="0 0 40.951 40.951"><defs><style>.a{fill:none;stroke:#585858;stroke-miterlimit:10;}.b{fill:#585858;}</style></defs><g transform="translate(-154.68 -524.515)"><g transform="translate(155.18 525.015)"><path class="a" d="M298.175.7a19.975,19.975,0,1,0,19.975,19.975A19.971,19.971,0,0,0,298.175.7Z" transform="translate(-278.2 -0.7)"/></g><g transform="translate(162.515 538.408)"><rect class="b" width="6.631" height="1.277" transform="translate(17.339 0.688)"/><path class="b" d="M335.935,89.59a4.046,4.046,0,0,0-2.243-1.179c1.474-.557,2.21-1.457,2.21-2.669a2.668,2.668,0,0,0-1.523-2.587A8.289,8.289,0,0,0,330.7,82.5H323V95.451h7.925a7.671,7.671,0,0,0,3.962-.917,3.1,3.1,0,0,0,1.8-2.849A3.024,3.024,0,0,0,335.935,89.59ZM326.6,84.71h3.357c1.637,0,2.44.491,2.44,1.457a1.309,1.309,0,0,1-.573,1.179,2.818,2.818,0,0,1-1.588.377H326.6Zm3.831,8.547H326.6V89.672h3.913c1.719,0,2.587.622,2.587,1.867C333.1,92.684,332.2,93.257,330.434,93.257Z" transform="translate(-323 -82.5)"/><path class="b" d="M424.905,107.776a4.778,4.778,0,0,0-1.474-3.586,6.056,6.056,0,0,0-4.29-1.49,7.127,7.127,0,0,0-3.127.655,5.27,5.27,0,0,0-2.145,1.785,4.407,4.407,0,0,0-.77,2.521,4.348,4.348,0,0,0,1.637,3.537,6.711,6.711,0,0,0,4.4,1.359c2.833,0,4.666-1.048,5.534-3.144h-2.865a1.756,1.756,0,0,1-.982.917,4.055,4.055,0,0,1-1.588.327,3.346,3.346,0,0,1-2.145-.622,2.167,2.167,0,0,1-.753-1.785h8.53Zm-8.58-1.13a2.005,2.005,0,0,1,.835-1.457,3.161,3.161,0,0,1,1.916-.54,2.827,2.827,0,0,1,1.817.524,2.106,2.106,0,0,1,.737,1.474Z" transform="translate(-398.348 -99.393)"/></g></g></svg>