<svg xmlns="http://www.w3.org/2000/svg" viewBox="0 0 39.215 39.215"><defs><style>.a{fill:none;stroke:#585858;stroke-miterlimit:10;}.b{fill:#585858;}</style></defs><g transform="translate(-201.884 -526.267)"><g transform="translate(202.384 526.767)"><path class="a" d="M602.128,40.053a19.25,19.25,0,0,1-6.975,6.975,18.9,18.9,0,0,1-19.091,0,19.377,19.377,0,0,1-6.975-6.975,18.905,18.905,0,0,1,0-19.091,19.377,19.377,0,0,1,6.975-6.975,18.9,18.9,0,0,1,19.091,0,19.377,19.377,0,0,1,6.975,6.975,18.905,18.905,0,0,1,0,19.091Z" transform="translate(-566.5 -11.4)"/></g><path class="b" d="M635.718,67.235a2.363,2.363,0,0,0-1.965-.917,2.535,2.535,0,0,0-1.85.77,12.246,12.246,0,0,0-6.631-2.079L626.581,59l4.306.933a1.9,1.9,0,0,0,.54,1.392,1.814,1.814,0,0,0,1.343.54,1.781,1.781,0,0,0,1.343-.573,1.922,1.922,0,0,0,.54-1.343,1.894,1.894,0,0,0-.54-1.343,1.782,1.782,0,0,0-1.392-.573,1.715,1.715,0,0,0-1,.311,1.927,1.927,0,0,0-.688.77L626.369,58a.489.489,0,0,0-.311.115.748.748,0,0,0-.229.278l-1.457,6.631a12.146,12.146,0,0,0-6.615,2.079,2.54,2.54,0,0,0-3.815.2,2.536,2.536,0,0,0-.508,2.112,2.5,2.5,0,0,0,1.392,1.768,4.432,4.432,0,0,0-.147,1.163,5.668,5.668,0,0,0,1.392,3.7,9.2,9.2,0,0,0,3.7,2.652,13.16,13.16,0,0,0,5.076.966,13.471,13.471,0,0,0,5.125-.966,9.1,9.1,0,0,0,3.733-2.652,5.668,5.668,0,0,0,1.392-3.7l-.147-1.228a2.214,2.214,0,0,0,1.343-1.736A2.765,2.765,0,0,0,635.718,67.235ZM619.279,72.7a1.793,1.793,0,0,1-.54-1.31,1.9,1.9,0,0,1,.54-1.343,1.859,1.859,0,0,1,2.685,0,1.922,1.922,0,0,1,.54,1.343,1.845,1.845,0,0,1-1.85,1.85A1.863,1.863,0,0,1,619.279,72.7Zm9.775,3.226a4.651,4.651,0,0,1-2.538,1.163,9.074,9.074,0,0,1-3.389,0,4.651,4.651,0,0,1-2.538-1.163.491.491,0,0,1,.344-.835.262.262,0,0,1,.262.147,3.786,3.786,0,0,0,2.161.917,9.771,9.771,0,0,0,2.931,0,3.891,3.891,0,0,0,2.161-.917.278.278,0,0,1,.262-.147.5.5,0,0,1,.491.491A.374.374,0,0,1,629.054,75.929Zm1.31-3.226a1.938,1.938,0,0,1-2.685,0,1.793,1.793,0,0,1-.54-1.31,1.894,1.894,0,0,1,.54-1.343,1.838,1.838,0,0,1,1.392-.573,1.762,1.762,0,0,1,1.31.573,1.923,1.923,0,0,1,.54,1.343A1.876,1.876,0,0,1,630.364,72.7Z" transform="translate(-403.321 476.397)"/></g></svg>