<?xml version="1.0" encoding="utf-8"?>
<!-- Generator: Adobe Illustrator 22.1.0, SVG Export Plug-In . SVG Version: 6.00 Build 0)  -->
<svg version="1.1" xmlns="http://www.w3.org/2000/svg" xmlns:xlink="http://www.w3.org/1999/xlink" x="0px" y="0px"
	 viewBox="0 0 32 32" style="enable-background:new 0 0 32 32;" xml:space="preserve">
<style type="text/css">
	.st0{fill:none;}
</style>
<g id="outline">
	<g>
		<path d="M-3.5,32h-30.1c-0.5,0-0.9-0.4-0.9-0.9V0.9c0-0.5,0.4-0.9,0.9-0.9h30.1C-3,0-2.5,0.4-2.5,0.9v30.1C-2.5,31.6-3,32-3.5,32z
			 M-33.6,0.6c-0.2,0-0.3,0.1-0.3,0.3v30.1c0,0.2,0.1,0.3,0.3,0.3h30.1c0.2,0,0.3-0.1,0.3-0.3V0.9c0-0.2-0.1-0.3-0.3-0.3H-33.6z"/>
	</g>
</g>
<g id="lower-line">
	<g>
		<path d="M-7.6,22.5h-21.9c-0.2,0-0.3-0.1-0.3-0.3c0-0.2,0.1-0.3,0.3-0.3h21.9c0.2,0,0.3,0.1,0.3,0.3C-7.3,22.3-7.4,22.5-7.6,22.5z
			"/>
	</g>
</g>
<g id="mid-line">
	<g>
		<path d="M-7.6,16.3h-21.9c-0.2,0-0.3-0.1-0.3-0.3c0-0.2,0.1-0.3,0.3-0.3h21.9c0.2,0,0.3,0.1,0.3,0.3C-7.3,16.2-7.4,16.3-7.6,16.3z
			"/>
	</g>
</g>
<g id="top-line">
	<g>
		<path d="M-7.6,10.2h-21.9c-0.2,0-0.3-0.1-0.3-0.3s0.1-0.3,0.3-0.3h21.9c0.2,0,0.3,0.1,0.3,0.3S-7.4,10.2-7.6,10.2z"/>
	</g>
	<g>
		<path d="M29.5,32h-27C1.1,32,0,30.9,0,29.5v-27C0,1.1,1.1,0,2.5,0h27C30.9,0,32,1.1,32,2.5v27C32,30.9,30.9,32,29.5,32z M2.5,1
			C1.7,1,1,1.7,1,2.5v27C1,30.3,1.7,31,2.5,31h27c0.8,0,1.5-0.7,1.5-1.5v-27C31,1.7,30.3,1,29.5,1H2.5z"/>
	</g>
	<line class="st0" x1="7.2" y1="9" x2="26.7" y2="9"/>
	<line class="st0" x1="7.2" y1="14.4" x2="26.7" y2="14.4"/>
</g>
</svg>
