<svg xmlns="http://www.w3.org/2000/svg" viewBox="0 0 40.951 40.951"><defs><style>.a{fill:none;stroke:#585858;stroke-miterlimit:10;}.b{fill:#585858;}</style></defs><g transform="translate(-109.211 -524.482)"><path class="a" d="M20.475.5A19.975,19.975,0,1,0,40.451,20.475,19.971,19.971,0,0,0,20.475.5Z" transform="translate(109.211 524.482)"/><path class="b" d="M90.657,53.023H88.185a2.44,2.44,0,0,0-1.867.622,2.548,2.548,0,0,0-.409,1.654v2.964h4.6l-.622,4.617h-4V74.848H81.079V62.879H77.1V58.262h4V54.824A5.6,5.6,0,0,1,87.088,48.7c1.424,0,2.62.049,3.569.131Z" transform="translate(45.153 484.174)"/></g></svg>